HIERARCHY
ROOT CG
{
	OFFSET 0.000000 0.000000 27.772259
	CHANNELS 6 Xposition Yposition Zposition Xrotation Yrotation Zrotation
	JOINT Pelvis
	{
		OFFSET 0.000000 0.000000 0.000000
		CHANNELS 3 Xrotation Yrotation Zrotation
		JOINT Spine
		{
			OFFSET -0.000017 -10.490843 -0.495483
			CHANNELS 3 Xrotation Yrotation Zrotation
			JOINT Spine1
			{
				OFFSET -0.000010 -22.678980 0.018061
				CHANNELS 3 Xrotation Yrotation Zrotation
				JOINT Spine2
				{
					OFFSET -0.000010 -22.678967 0.018061
					CHANNELS 3 Xrotation Yrotation Zrotation
					JOINT Spine3
					{
						OFFSET -0.000010 -22.678982 0.018059
						CHANNELS 3 Xrotation Yrotation Zrotation
						JOINT Neck
						{
							OFFSET -0.000012 -22.678986 -1.289251
							CHANNELS 3 Xrotation Yrotation Zrotation
							JOINT Neck1
							{
								OFFSET -0.000007 -16.255905 0.012947
								CHANNELS 3 Xrotation Yrotation Zrotation
								JOINT Head
								{
									OFFSET -0.000005 -10.784607 -0.287502
									CHANNELS 3 Xrotation Yrotation Zrotation
									JOINT Jaw01
									{
										OFFSET 0.000031 7.782959 5.073944
										CHANNELS 3 Xrotation Yrotation Zrotation
										JOINT Jaw02
										{
											OFFSET 0.000004 -34.927139 -18.883980
											CHANNELS 3 Xrotation Yrotation Zrotation
											End Site
											{
												OFFSET -0.000170 8.372803 -38.812450
											}
										}
									}
									JOINT Nose
									{
										OFFSET -0.000002 -25.700912 7.222265
										CHANNELS 3 Xrotation Yrotation Zrotation
										End Site
										{
											OFFSET -0.000090 0.641281 -21.715439
										}
									}
									JOINT L_EyeSocket
									{
										OFFSET 7.352326 -19.832718 14.164183
										CHANNELS 3 Xrotation Yrotation Zrotation
										JOINT L_Eye
										{
											OFFSET -0.000868 -0.001053 0.016003
											CHANNELS 3 Xrotation Yrotation Zrotation
											End Site
											{
												OFFSET -0.001505 -0.001846 0.027969
											}
										}
										JOINT L_Eyelid_Top
										{
											OFFSET -0.001004 -0.002625 0.032516
											CHANNELS 3 Xrotation Yrotation Zrotation
											End Site
											{
												OFFSET -0.013218 0.005753 0.024086
											}
										}
										JOINT L_Eyelid_Bottom
										{
											OFFSET -0.001194 -0.002777 0.035381
											CHANNELS 3 Xrotation Yrotation Zrotation
											End Site
											{
												OFFSET -0.010032 0.008636 -0.024754
											}
										}
									}
									JOINT R_EyeSocket
									{
										OFFSET -7.352252 -19.832748 14.164206
										CHANNELS 3 Xrotation Yrotation Zrotation
										JOINT R_Eye
										{
											OFFSET 0.000875 -0.001068 0.015991
											CHANNELS 3 Xrotation Yrotation Zrotation
											End Site
											{
												OFFSET 0.001505 -0.001846 0.027962
											}
										}
										JOINT R_Eyelid_Top
										{
											OFFSET 0.001021 -0.002625 0.032516
											CHANNELS 3 Xrotation Yrotation Zrotation
											End Site
											{
												OFFSET 0.013214 0.005753 0.024078
											}
										}
										JOINT R_Eyelid_Bottom
										{
											OFFSET 0.001170 -0.002762 0.035366
											CHANNELS 3 Xrotation Yrotation Zrotation
											End Site
											{
												OFFSET 0.010029 0.008636 -0.024746
											}
										}
									}
								}
								JOINT Neck_Fat
								{
									OFFSET 0.000044 -9.595100 -17.491512
									CHANNELS 3 Xrotation Yrotation Zrotation
									End Site
									{
										OFFSET -0.000036 15.369423 -0.000007
									}
								}
							}
						}
						JOINT L_Clavicle
						{
							OFFSET 4.567107 -11.666092 -3.750029
							CHANNELS 3 Xrotation Yrotation Zrotation
							JOINT L_UpperArm
							{
								OFFSET 20.725666 -0.000053 -0.000032
								CHANNELS 3 Xrotation Yrotation Zrotation
								JOINT L_Forearm
								{
									OFFSET 5.265112 -0.585754 -20.155697
									CHANNELS 3 Xrotation Yrotation Zrotation
									JOINT L_Hand
									{
										OFFSET 2.653017 -10.877708 -16.383667
										CHANNELS 3 Xrotation Yrotation Zrotation
										JOINT L_Finger0
										{
											OFFSET -4.206146 -4.328911 -5.034346
											CHANNELS 3 Xrotation Yrotation Zrotation
											JOINT L_Finger01
											{
												OFFSET 0.084272 -1.788536 -4.181065
												CHANNELS 3 Xrotation Yrotation Zrotation
												End Site
												{
													OFFSET 3.261885 3.094673 -0.685818
												}
											}
										}
										JOINT L_Finger1
										{
											OFFSET -1.039112 -6.775742 -3.499998
											CHANNELS 3 Xrotation Yrotation Zrotation
											JOINT L_Finger11
											{
												OFFSET 1.320335 -3.040672 -6.425793
												CHANNELS 3 Xrotation Yrotation Zrotation
												End Site
												{
													OFFSET -1.244579 6.832077 -2.013330
												}
											}
										}
										JOINT L_Finger2
										{
											OFFSET 2.531296 -5.656487 -3.286415
											CHANNELS 3 Xrotation Yrotation Zrotation
											JOINT L_Finger21
											{
												OFFSET 1.991665 -2.402016 -5.957748
												CHANNELS 3 Xrotation Yrotation Zrotation
												End Site
												{
													OFFSET -2.793068 5.800873 -1.944178
												}
											}
										}
										JOINT L_Finger3
										{
											OFFSET 5.474075 -3.302338 -2.655975
											CHANNELS 3 Xrotation Yrotation Zrotation
											JOINT L_Finger31
											{
												OFFSET 2.026943 -1.267532 -5.961166
												CHANNELS 3 Xrotation Yrotation Zrotation
												End Site
												{
													OFFSET -4.375172 4.343658 -1.800320
												}
											}
										}
										JOINT L_Finger4
										{
											OFFSET 4.825745 1.085899 -2.321970
											CHANNELS 3 Xrotation Yrotation Zrotation
											JOINT L_Finger41
											{
												OFFSET 3.358261 -1.829651 -3.744434
												CHANNELS 3 Xrotation Yrotation Zrotation
												End Site
												{
													OFFSET -3.843296 2.955200 -2.267633
												}
											}
										}
									}
								}
							}
						}
						JOINT R_Clavicle
						{
							OFFSET -4.567111 -11.666092 -3.750036
							CHANNELS 3 Xrotation Yrotation Zrotation
							JOINT R_UpperArm
							{
								OFFSET -20.725670 -0.000031 0.000038
								CHANNELS 3 Xrotation Yrotation Zrotation
								JOINT R_Forearm
								{
									OFFSET -5.265285 -0.585762 -20.155655
									CHANNELS 3 Xrotation Yrotation Zrotation
									JOINT R_Hand
									{
										OFFSET -2.653147 -10.877739 -16.383663
										CHANNELS 3 Xrotation Yrotation Zrotation
										JOINT R_Finger0
										{
											OFFSET 4.206116 -4.328888 -5.034388
											CHANNELS 3 Xrotation Yrotation Zrotation
											JOINT R_Finger01
											{
												OFFSET -0.084324 -1.788544 -4.181051
												CHANNELS 3 Xrotation Yrotation Zrotation
												End Site
												{
													OFFSET -3.261890 3.094666 -0.685791
												}
											}
										}
										JOINT R_Finger1
										{
											OFFSET 1.039101 -6.775711 -3.499994
											CHANNELS 3 Xrotation Yrotation Zrotation
											JOINT R_Finger11
											{
												OFFSET -1.320374 -3.040672 -6.425779
												CHANNELS 3 Xrotation Yrotation Zrotation
												End Site
												{
													OFFSET 1.244556 6.832077 -2.013342
												}
											}
										}
										JOINT R_Finger2
										{
											OFFSET -2.531307 -5.656464 -3.286409
											CHANNELS 3 Xrotation Yrotation Zrotation
											JOINT R_Finger21
											{
												OFFSET -1.991707 -2.402016 -5.957708
												CHANNELS 3 Xrotation Yrotation Zrotation
												End Site
												{
													OFFSET 2.793037 5.800858 -1.944197
												}
											}
										}
										JOINT R_Finger3
										{
											OFFSET -5.474091 -3.302330 -2.655947
											CHANNELS 3 Xrotation Yrotation Zrotation
											JOINT R_Finger31
											{
												OFFSET -2.026993 -1.267532 -5.961157
												CHANNELS 3 Xrotation Yrotation Zrotation
												End Site
												{
													OFFSET 4.375156 4.343674 -1.800358
												}
											}
										}
										JOINT R_Finger4
										{
											OFFSET -4.825756 1.085922 -2.321926
											CHANNELS 3 Xrotation Yrotation Zrotation
											JOINT R_Finger41
											{
												OFFSET -3.358307 -1.829651 -3.744390
												CHANNELS 3 Xrotation Yrotation Zrotation
												End Site
												{
													OFFSET 3.843273 2.955208 -2.267666
												}
											}
										}
									}
								}
							}
						}
					}
				}
			}
		}
		JOINT Tail01
		{
			OFFSET -0.000010 10.922326 -0.017508
			CHANNELS 3 Xrotation Yrotation Zrotation
			JOINT Tail02
			{
				OFFSET -0.000022 21.986111 0.000013
				CHANNELS 3 Xrotation Yrotation Zrotation
				JOINT Tail03
				{
					OFFSET -0.000022 21.986118 0.000002
					CHANNELS 3 Xrotation Yrotation Zrotation
					JOINT Tail04
					{
						OFFSET -0.000022 21.986122 0.000004
						CHANNELS 3 Xrotation Yrotation Zrotation
						JOINT Tail05
						{
							OFFSET -0.000022 21.986099 0.000010
							CHANNELS 3 Xrotation Yrotation Zrotation
							JOINT Tail06
							{
								OFFSET -0.000022 21.986099 0.000006
								CHANNELS 3 Xrotation Yrotation Zrotation
								JOINT Tail07
								{
									OFFSET -0.000022 21.986099 0.000000
									CHANNELS 3 Xrotation Yrotation Zrotation
									JOINT Tail08
									{
										OFFSET -0.000022 21.984848 0.000050
										CHANNELS 3 Xrotation Yrotation Zrotation
										JOINT Tail09
										{
											OFFSET -0.000025 21.926025 -1.606211
											CHANNELS 3 Xrotation Yrotation Zrotation
											JOINT Tail10
											{
												OFFSET -0.000027 21.750092 -3.203882
												CHANNELS 3 Xrotation Yrotation Zrotation
												End Site
												{
													OFFSET -0.000036 4.767395 21.461668
												}
											}
										}
									}
								}
							}
						}
					}
				}
			}
		}
		JOINT L_Thigh
		{
			OFFSET 24.788780 0.000021 -0.000034
			CHANNELS 3 Xrotation Yrotation Zrotation
			JOINT L_Calf
			{
				OFFSET 4.720837 4.161326 -21.049969
				CHANNELS 3 Xrotation Yrotation Zrotation
				JOINT L_Foot
				{
					OFFSET 2.154160 21.114433 -11.949743
					CHANNELS 3 Xrotation Yrotation Zrotation
					JOINT L_Toe0
					{
						OFFSET 4.557564 9.251841 -8.735286
						CHANNELS 3 Xrotation Yrotation Zrotation
						End Site
						{
							OFFSET 4.555542 -12.646044 1.018752
						}
					}
					JOINT L_Toe1
					{
						OFFSET 2.346291 5.845602 -11.687160
						CHANNELS 3 Xrotation Yrotation Zrotation
						End Site
						{
							OFFSET 5.347954 -12.298279 1.365644
						}
					}
					JOINT L_Toe2
					{
						OFFSET -0.356020 3.902458 -12.541145
						CHANNELS 3 Xrotation Yrotation Zrotation
						End Site
						{
							OFFSET 3.916235 -12.806129 1.542549
						}
					}
					JOINT L_Toe3
					{
						OFFSET -4.603447 3.183935 -12.435249
						CHANNELS 3 Xrotation Yrotation Zrotation
						End Site
						{
							OFFSET 3.810858 -12.587427 2.957583
						}
					}
					JOINT L_Toe4
					{
						OFFSET -7.144358 6.231495 -10.072764
						CHANNELS 3 Xrotation Yrotation Zrotation
						End Site
						{
							OFFSET 3.810858 -12.587425 2.957585
						}
					}
				}
			}
		}
		JOINT R_Thigh
		{
			OFFSET -24.788780 -0.000024 0.000034
			CHANNELS 3 Xrotation Yrotation Zrotation
			JOINT R_Calf
			{
				OFFSET -4.720922 4.161324 -21.049952
				CHANNELS 3 Xrotation Yrotation Zrotation
				JOINT R_Foot
				{
					OFFSET -2.154238 21.114414 -11.949730
					CHANNELS 3 Xrotation Yrotation Zrotation
					JOINT R_Toe0
					{
						OFFSET -4.557598 9.251823 -8.735270
						CHANNELS 3 Xrotation Yrotation Zrotation
						End Site
						{
							OFFSET -4.555508 -12.646051 1.018756
						}
					}
					JOINT R_Toe1
					{
						OFFSET -2.346325 5.845589 -11.687157
						CHANNELS 3 Xrotation Yrotation Zrotation
						End Site
						{
							OFFSET -5.347919 -12.298286 1.365654
						}
					}
					JOINT R_Toe2
					{
						OFFSET 0.355980 3.902462 -12.541145
						CHANNELS 3 Xrotation Yrotation Zrotation
						End Site
						{
							OFFSET -3.916199 -12.806131 1.542559
						}
					}
					JOINT R_Toe3
					{
						OFFSET 4.603411 3.183941 -12.435266
						CHANNELS 3 Xrotation Yrotation Zrotation
						End Site
						{
							OFFSET -3.810825 -12.587429 2.957591
						}
					}
					JOINT R_Toe4
					{
						OFFSET 7.144323 6.231503 -10.072779
						CHANNELS 3 Xrotation Yrotation Zrotation
						End Site
						{
							OFFSET -3.810825 -12.587433 2.957584
						}
					}
				}
			}
		}
	}
}
MOTION
Frames: 4
Frame Time: 0.033333
0.000000 0.000000 52.000000 0.000000 -0.000000 0.000061 -8.842944 -0.000088 0.000007 10.961080 0.000007 0.000018 2.118161 -0.000001 0.000003 4.876472 -0.000002 0.000004 -2.163953 0.000002 -0.000003 -6.986522 0.000003 -0.000007 -13.013547 0.000008 -0.000015 14.417327 -0.000016 -0.000007 -11.537026 -0.000053 0.000048 0.000008 0.000000 -0.000000 0.000020 0.000000 -0.000000 -0.000004 0.000007 -0.000015 0.000089 -0.000055 0.000015 0.000000 -0.000003 -0.000001 0.000003 -0.000005 0.000010 0.000001 0.000000 -0.000003 0.000087 0.000054 -0.000008 0.000002 -0.000002 -0.000001 0.000000 -0.000000 -0.000003 -0.000001 -0.000000 -0.000000 -0.000000 0.000000 -0.000000 18.066945 -18.052680 7.063972 -4.865315 0.816342 -1.261463 -13.778477 -6.005206 -8.062209 8.887855 3.567521 -37.974175 2.293944 -2.160265 1.022048 -3.150413 20.093950 -17.320347 3.208080 0.692813 0.316693 3.933913 4.075153 -11.205345 2.902148 1.528048 0.320276 0.207612 -2.202464 -4.182381 2.258071 2.391609 0.214568 0.630639 22.321374 35.921471 1.858303 2.703244 0.310868 -0.000000 0.000000 -0.000000 18.066945 18.052668 -7.064183 -4.865285 -0.816354 1.261503 -13.778424 6.005167 8.062314 8.888132 -3.567423 37.974114 2.293933 2.160271 -1.022056 -3.150232 -20.093935 17.320444 3.208082 -0.692817 -0.316718 3.934005 -4.075133 11.205322 2.902142 -1.528048 -0.320294 0.207645 2.202486 4.182372 2.258074 -2.391611 -0.214595 0.630361 -22.321255 -35.921597 1.858312 -2.703243 -0.310877 -12.821442 -0.000004 0.000031 -8.690510 -1.231629 3.950030 4.074684 -0.411161 3.257981 10.928606 -1.224481 -4.711672 8.748303 -0.666064 -3.879163 3.684310 -0.619761 -7.917677 2.127006 -0.853753 -8.839842 2.594716 -2.139009 7.097612 0.985429 -1.366357 6.127729 0.657236 -0.804965 6.204770 -11.633930 -1.446683 -4.440372 -17.717625 0.135687 -4.082702 39.522709 -5.221578 -0.468478 3.915754 1.584376 1.411397 3.909559 1.866416 1.042747 4.237748 1.362027 0.369263 4.292120 1.213284 -0.353391 4.206231 0.948590 -1.216581 -11.633901 1.446666 4.440373 -17.717646 -0.135738 4.082749 39.522685 5.221621 0.468360 3.915750 -1.584386 -1.411410 3.909563 -1.866407 -1.042766 4.237765 -1.362021 -0.369270 4.292128 -1.213278 0.353383 4.206225 -0.948569 1.216571 
0.000000 4.728601 48.083099 -0.113566 -0.000000 0.000014 -8.836532 0.894669 0.004885 8.344173 -0.562755 0.225051 0.777636 0.292317 -0.250024 5.734357 0.297080 0.085784 -1.313619 0.212680 0.107428 -1.446922 -0.016294 0.034475 1.642041 4.951855 0.508538 3.934505 3.173310 -10.159578 -6.328041 -0.000048 0.000054 0.000010 0.000001 -0.000001 5.617679 -0.000012 -0.000007 -0.000004 0.000006 -0.000020 0.000088 -0.000056 0.000016 0.000003 0.000007 0.000004 -0.000000 -0.000005 0.000003 0.000002 0.000000 -0.000005 0.000086 0.000055 -0.000010 0.000004 -0.000008 0.000000 -0.000000 -0.000001 0.000002 -0.000000 -0.000000 0.000000 -0.000005 0.215521 0.709512 10.201014 -23.283777 1.559664 -2.879544 0.469870 -0.754444 -13.341656 -5.418736 -7.534324 9.749687 3.509652 -37.969660 2.465161 -2.318305 1.101073 -2.473420 20.156771 -17.298754 3.445104 0.744712 0.338562 4.353792 4.123851 -11.147518 3.116417 1.641626 0.340882 0.564240 -2.027904 -4.239542 2.424780 2.568716 0.226702 1.024208 22.363315 35.862007 1.995241 2.903461 0.330392 -0.000006 -0.215812 -0.709424 10.666942 20.105557 -1.405304 -2.879515 -0.469877 0.754463 -13.341597 5.418700 7.534435 9.749899 -3.509453 37.969879 2.465151 2.318309 -1.101090 -2.473233 -20.156744 17.298839 3.445099 -0.744719 -0.338586 4.353873 -4.123844 11.147451 3.116418 -1.641618 -0.340898 0.564268 2.027914 4.239547 2.424783 -2.568721 -0.226722 1.023917 -22.363183 -35.862147 1.995250 -2.903462 -0.330396 -11.173974 0.285691 0.828799 -7.587871 -0.387047 7.931952 2.803189 -0.212176 0.068090 10.498078 -0.953050 -8.442057 8.710693 -0.260561 -5.956541 4.065388 -0.303530 -7.453086 2.631770 -0.743141 -6.264496 2.719215 -1.228524 10.285294 0.689988 -0.489478 8.177148 0.063392 -0.742537 6.147972 -17.417512 -2.265301 -6.456969 -11.008961 -0.064460 -2.543259 32.977974 -5.653694 0.024326 3.915746 1.584383 1.411394 3.909556 1.866415 1.042752 4.237764 1.361997 0.369262 4.292119 1.213284 -0.353394 4.206231 0.948586 -1.216584 -17.355459 0.504427 5.858018 -11.815426 0.049924 2.729391 33.878947 5.594775 -0.130174 3.915749 -1.584384 -1.411409 3.909561 -1.866412 -1.042761 4.237765 -1.362022 -0.369268 4.292123 -1.213275 0.353384 4.206229 -0.948568 1.216570 
0.000001 9.782440 43.859612 -0.227145 0.000000 -0.000137 -8.831059 1.973039 0.008752 5.429062 -1.156864 0.400077 -0.627046 0.588155 -0.495405 6.833616 0.592543 0.187684 -0.220601 0.426413 0.211503 2.631999 -0.286475 0.246595 12.650413 7.167353 0.151107 -0.713595 3.947639 -19.359941 -1.419274 -0.000038 0.000051 0.000012 0.000001 0.000002 8.988298 -0.000018 -0.000010 -0.000003 0.000006 -0.000020 0.000088 -0.000057 0.000015 0.000006 -0.000001 -0.000003 0.000003 -0.000003 0.000003 0.000002 -0.000002 -0.000000 0.000088 0.000053 -0.000008 0.000004 -0.000007 0.000001 0.000001 -0.000002 -0.000001 0.000002 0.000001 -0.000000 0.000039 0.431121 1.418758 0.199165 -27.515262 -5.938405 -0.132088 0.020687 -0.035072 -12.652550 -4.674427 -7.093594 10.611781 3.452099 -37.964712 2.636690 -2.476176 1.180616 -1.795817 20.219981 -17.278111 3.682202 0.796723 0.360225 4.773822 4.172739 -11.089719 3.330742 1.755320 0.361069 0.921295 -1.853715 -4.298324 2.591546 2.745934 0.238312 1.418721 22.405071 35.801324 2.132190 3.103804 0.349446 -0.000027 -0.431490 -1.418924 1.741924 20.939203 5.210450 -0.132065 -0.020683 0.035075 -12.652502 4.674406 7.093688 10.611813 -3.451653 37.965627 2.636678 2.476181 -1.180630 -1.795636 -20.219967 17.278196 3.682203 -0.796734 -0.360251 4.773889 -4.172789 11.089549 3.330748 -1.755314 -0.361092 0.921330 1.853722 4.298320 2.591541 -2.745938 -0.238337 1.418413 -22.404945 -35.801468 2.132197 -3.103798 -0.349450 -9.677284 0.590576 1.640157 -6.602451 0.387485 11.867420 1.778830 -0.020080 -2.440306 10.024712 -0.672599 -11.714151 8.458670 0.046625 -8.324754 4.195190 -0.044434 -7.938749 2.964285 -0.568073 -4.794550 2.911969 -0.417608 12.772620 0.683382 0.353583 10.411104 -0.064736 -0.476651 7.077701 -23.448606 -3.005631 -8.776312 -3.958542 -0.079477 -0.912659 25.840547 -6.174655 0.478131 3.915750 1.584390 1.411391 3.909555 1.866415 1.042751 4.237785 1.361903 0.369271 4.292120 1.213283 -0.353392 4.206229 0.948587 -1.216587 -23.385641 -0.686301 7.116250 -5.502843 0.093342 1.269795 27.648445 6.050949 -0.718811 3.915748 -1.584381 -1.411411 3.909563 -1.866405 -1.042767 4.237765 -1.362021 -0.369270 4.292130 -1.213276 0.353383 4.206226 -0.948568 1.216568 
0.000001 14.185804 40.249306 -0.369267 0.000002 -0.000328 -8.823921 2.684189 0.014357 3.108063 -1.736451 0.466108 -1.899645 0.894996 -0.740377 7.448972 0.887982 0.243969 0.385910 0.658250 0.310459 3.818276 -1.251668 0.821048 16.672476 3.787801 0.157359 3.706675 2.338350 -25.161099 3.270145 0.003314 -0.006134 0.000009 0.000000 -0.000001 4.824012 -0.000009 -0.000005 -0.000003 0.000008 -0.000018 0.000087 -0.000056 0.000008 0.000007 0.000006 -0.000006 -0.000002 -0.000008 0.000003 0.000001 0.000001 -0.000002 0.000089 0.000053 -0.000005 0.000006 -0.000009 0.000003 -0.000000 0.000004 0.000000 0.000002 -0.000000 -0.000000 0.001027 0.646872 2.128320 -9.781324 -29.943283 -14.172015 2.240477 -0.338408 0.601671 -12.099728 -4.001041 -6.620312 11.474169 3.394813 -37.959282 2.808503 -2.633851 1.260666 -1.117706 20.283551 -17.258416 3.919356 0.848843 0.381677 5.193971 4.221929 -11.032051 3.545113 1.869123 0.380836 1.278668 -1.679855 -4.358457 2.758351 2.923234 0.249421 1.813819 22.446573 35.739798 2.269141 3.304252 0.368021 0.000147 -0.647095 -2.128346 -6.578251 20.925048 11.583325 2.240488 0.338414 -0.601688 -12.099689 4.001018 6.620412 11.473959 -3.394038 37.961153 2.808489 2.633852 -1.260688 -1.117525 -20.283541 17.258498 3.919358 -0.848853 -0.381697 5.193983 -4.222046 11.031720 3.545112 -1.869116 -0.380863 1.278697 1.679865 4.358446 2.758347 -2.923236 -0.249451 1.813519 -22.446438 -35.739948 2.269148 -3.304248 -0.368032 -8.491970 0.909304 2.566255 -5.721147 0.734453 16.086484 1.381454 0.029533 -3.337094 9.401072 -0.380118 -14.095090 7.487488 0.145960 -11.992899 3.603558 0.141519 -11.399557 2.948151 -0.258211 -6.344006 3.565577 0.204188 13.877872 1.680134 1.294905 14.106921 1.164467 0.557339 11.523773 -29.524316 -3.124930 -11.091887 3.174017 0.109169 0.726737 18.554334 -6.717863 0.860173 3.915750 1.584390 1.411389 3.909554 1.866416 1.042749 4.237827 1.361770 0.369282 4.292120 1.213284 -0.353393 4.206204 0.948581 -1.216583 -29.496496 -1.642630 8.346208 0.910668 -0.027195 -0.209086 21.274210 6.555306 -1.255744 3.915750 -1.584386 -1.411414 3.909561 -1.866415 -1.042761 4.237767 -1.362021 -0.369270 4.292113 -1.213273 0.353382 4.206211 -0.948564 1.216569 
